<?xml version="1.0"?>
<svg xmlns="http://www.w3.org/2000/svg" xmlns:xlink="http://www.w3.org/1999/xlink" xmlns:svgjs="http://svgjs.com/svgjs" version="1.1" width="512" height="512" x="0" y="0" viewBox="0 0 24 24" style="enable-background:new 0 0 512 512" xml:space="preserve"><g><path xmlns="http://www.w3.org/2000/svg" d="m0 9v9a5.006 5.006 0 0 0 5 5h14a5.006 5.006 0 0 0 5-5v-9zm14 10h-8a1 1 0 0 1 0-2h8a1 1 0 0 1 0 2zm4-4h-12a1 1 0 0 1 0-2h12a1 1 0 0 1 0 2zm6-8v-1a5.006 5.006 0 0 0 -5-5h-14a5.006 5.006 0 0 0 -5 5v1zm-14-4a1 1 0 1 1 -1 1 1 1 0 0 1 1-1zm-3 0a1 1 0 1 1 -1 1 1 1 0 0 1 1-1zm-3 0a1 1 0 1 1 -1 1 1 1 0 0 1 1-1z" fill="#ffffff" data-original="#000000"/></g></svg>
